<?xml version="1.0" encoding="UTF-8" standalone="no"?>
<svg
   xmlns:dc="http://purl.org/dc/elements/1.1/"
   xmlns:cc="http://creativecommons.org/ns#"
   xmlns:rdf="http://www.w3.org/1999/02/22-rdf-syntax-ns#"
   xmlns:svg="http://www.w3.org/2000/svg"
   xmlns="http://www.w3.org/2000/svg"
   xmlns:xlink="http://www.w3.org/1999/xlink"
   xmlns:sodipodi="http://sodipodi.sourceforge.net/DTD/sodipodi-0.dtd"
   xmlns:inkscape="http://www.inkscape.org/namespaces/inkscape"
   sodipodi:docname="placeholder.svg"
   inkscape:version="1.0beta2 (2b71d25, 2019-12-03)"
   id="svg8"
   version="1.1"
   viewBox="0 0 264.58333 264.58333"
   height="1000"
   width="1000">
  <defs
     id="defs2">
    <linearGradient
       id="linearGradient862"
       inkscape:collect="always">
      <stop
         id="stop858"
         offset="0"
         style="stop-color:#b721ff;stop-opacity:1" />
      <stop
         id="stop860"
         offset="1"
         style="stop-color:#21d4fd;stop-opacity:1" />
    </linearGradient>
    <linearGradient
       gradientUnits="userSpaceOnUse"
       y2="41.69405"
       x2="239.4735"
       y1="253.90605"
       x1="13.898015"
       id="linearGradient864"
       xlink:href="#linearGradient862"
       inkscape:collect="always" />
  </defs>
  <sodipodi:namedview
     inkscape:window-maximized="1"
     inkscape:window-y="23"
     inkscape:window-x="0"
     inkscape:window-height="958"
     inkscape:window-width="1920"
     units="px"
     showgrid="false"
     inkscape:document-rotation="0"
     inkscape:current-layer="layer1"
     inkscape:document-units="px"
     inkscape:cy="455.69904"
     inkscape:cx="332.24244"
     inkscape:zoom="0.49497475"
     inkscape:pageshadow="2"
     inkscape:pageopacity="0.0"
     borderopacity="1.0"
     bordercolor="#666666"
     pagecolor="#ffffff"
     id="base" />
  <metadata
     id="metadata5">
    <rdf:RDF>
      <cc:Work
         rdf:about="">
        <dc:format>image/svg+xml</dc:format>
        <dc:type
           rdf:resource="http://purl.org/dc/dcmitype/StillImage" />
        <dc:title></dc:title>
      </cc:Work>
    </rdf:RDF>
  </metadata>
  <g
     id="layer1"
     inkscape:groupmode="layer"
     inkscape:label="Layer 1">
    <rect
       ry="11.339286"
       style="fill:url(#linearGradient864);stroke:none;stroke-width:0.269692;fill-opacity:1"
       y="-6.7529295e-06"
       x="-6.7529295e-06"
       height="264.58334"
       width="264.58334"
       id="rect833" />
    <path
       transform="scale(0.26458333)"
       d="M 207.26367 150.60547 C 175.87479 150.60547 150.60547 175.87479 150.60547 207.26367 L 150.60547 792.73633 C 150.60547 824.12519 175.87479 849.39453 207.26367 849.39453 L 792.73633 849.39453 C 824.12519 849.39453 849.39453 824.12519 849.39453 792.73633 L 849.39453 207.26367 C 849.39453 175.87479 824.12519 150.60547 792.73633 150.60547 L 207.26367 150.60547 z M 319.20898 244.45703 A 78.791899 78.791899 0 0 1 398 323.24805 A 78.791899 78.791899 0 0 1 319.20898 402.04102 A 78.791899 78.791899 0 0 1 240.41602 323.24805 A 78.791899 78.791899 0 0 1 319.20898 244.45703 z M 611.63672 438.63672 L 807.83008 782.78711 L 561.71289 782.78711 L 415.44141 782.78711 L 239.86523 782.78711 L 400.78906 552.06055 L 481.22852 667.39062 L 611.63672 438.63672 z "
       style="fill:#ffffff;stroke:#ffffff;stroke-width:1.20957"
       id="rect835" />
  </g>
</svg>
